<svg viewBox="0 0 1280 720" xmlns="http://www.w3.org/2000/svg"><rect x="0" y="0" width="1280" height="720" fill="#120B22"></rect><g data-face="corner-wedge"><path d="M980,720 L1280,340 L1280,720 Z" fill="#241847"></path><path d="M1040,720 L1280,416 L1280,467 L1080,720 Z" fill="#52F2A8" opacity="0.7"></path><text x="640" y="248" text-anchor="middle" font-family="Microsoft YaHei, PingFang SC, Helvetica Neue, sans-serif" font-size="19" fill="#52F2A8" dominant-baseline="alphabetic">战略与运营部</text><text x="640" y="360" text-anchor="middle" font-family="Microsoft YaHei, PingFang SC, Helvetica Neue, sans-serif" font-size="70" font-weight="700" fill="#F2F3F7" dominant-baseline="alphabetic">云觅科技 2026</text><text x="640" y="435" text-anchor="middle" font-family="Microsoft YaHei, PingFang SC, Helvetica Neue, sans-serif" font-size="70" font-weight="700" fill="#F2F3F7" dominant-baseline="alphabetic">年第二季度业务评审</text><text x="640" y="438" text-anchor="middle" font-family="Microsoft YaHei, PingFang SC, Helvetica Neue, sans-serif" font-size="34" fill="#52F2A8" dominant-baseline="alphabetic">工作区席位订阅业务的增长质量与下半年</text><text x="640" y="489" text-anchor="middle" font-family="Microsoft YaHei, PingFang SC, Helvetica Neue, sans-serif" font-size="34" fill="#52F2A8" dominant-baseline="alphabetic">投入方向</text><text data-contrast-tier="meta" x="96" y="700" font-family="Microsoft YaHei, PingFang SC, Helvetica Neue, sans-serif" font-size="16" fill="#A79FC4" dominant-baseline="alphabetic">战略与运营部 · 陈砚清 · 首席技术官</text></g><g data-decor="true"><path d="M12,36 L12,12 L36,12" fill="none" stroke="#52F2A8" stroke-width="2.5"></path><path d="M1244,12 L1268,12 L1268,36" fill="none" stroke="#52F2A8" stroke-width="2.5"></path><path d="M12,684 L12,708 L36,708" fill="none" stroke="#52F2A8" stroke-width="2.5"></path><path d="M1268,684 L1268,708 L1244,708" fill="none" stroke="#52F2A8" stroke-width="2.5"></path><line x1="28" y1="160" x2="80" y2="108" stroke="#52F2A8" stroke-width="2.5" opacity="1"></line><line x1="28" y1="220" x2="80" y2="168" stroke="#FF4D9D" stroke-width="2.5" opacity="1"></line><line x1="28" y1="280" x2="80" y2="228" stroke="#52F2A8" stroke-width="2.5" opacity="0.5"></line><line x1="28" y1="340" x2="80" y2="288" stroke="#FF4D9D" stroke-width="2.5" opacity="0.5"></line><line x1="28" y1="400" x2="80" y2="348" stroke="#52F2A8" stroke-width="2.5" opacity="0.25"></line><line x1="1200" y1="360" x2="1252" y2="308" stroke="#FF4D9D" stroke-width="2.5" opacity="1"></line><line x1="1200" y1="420" x2="1252" y2="368" stroke="#52F2A8" stroke-width="2.5" opacity="1"></line><line x1="1200" y1="480" x2="1252" y2="428" stroke="#FF4D9D" stroke-width="2.5" opacity="0.5"></line><line x1="1200" y1="540" x2="1252" y2="488" stroke="#52F2A8" stroke-width="2.5" opacity="0.5"></line><line x1="1200" y1="600" x2="1252" y2="548" stroke="#FF4D9D" stroke-width="2.5" opacity="0.25"></line></g></svg>